<?xml version="1.0" encoding="utf-8"?>
<!-- Generator: Adobe Adobe Illustrator 24.2.0, SVG Export Plug-In . SVG Version: 6.00 Build 0)  -->
<svg version="1.1" id="Layer_1" xmlns="http://www.w3.org/2000/svg" xmlns:xlink="http://www.w3.org/1999/xlink" x="0px" y="0px"
	 viewBox="0 0 283.46 283.46" style="enable-background:new 0 0 283.46 283.46;" xml:space="preserve">
<style type="text/css">
	.st0{fill:#FF0000;}
</style>
<g>
	<path d="M254.16,161.54c-8.08-13.46-27.96-16.1-47.41-16.1c-16.97,0-30.8,2.23-42.1,4.41l-33.05,6.41
		c-12.22,2.33-25.31,4.71-39.25,6.06c-3.46-5.94-7.74-14.72-7.74-24.94c0-8.86,3.1-19.04,27.3-19.04c6.95,0,14.19,0.97,20.35,1.92
		c22,3.37,43.1,7.04,59.36,14.91c3.88,1.89,6.39,4.1,7.9,6.97c1.49,2.85,4.74,3.01,9.67,0.49c3.28-1.67,13.77-7.54,11.2-12.68
		c-2.13-4.26-5.95-7.72-11.68-10.59c-17.96-8.87-40.14-12.26-61.59-15.54c-6.41-0.99-14.4-2.22-22.06-2.22
		c-16.03,0-31.19,5.53-46.36,16.91c-10.88,8.22-15.95,16.98-15.95,27.57c0,5.77,1.25,10.86,2.82,15.34
		c-7.55-2.07-18.27-7.48-18.27-21.54c0-10.2,5.75-18.31,9.62-21.28c2.98-2.28,6.24-3.97,12.47-7.04
		c13.39-6.6,48.97-21.94,90.14-21.94c29.83,0,54.3,7.01,72.76,20.86c5.1,3.75,7.64,1.32,8.3,0.49c0.66-0.83,2.42-3.86-2.37-7.9
		c-19.52-16.49-47.21-24.86-82.29-24.86c-29.68,0-58.36,6.59-85.25,19.6c-21.87,10.56-45.25,29.32-45.25,50.33
		c0,19.45,15.62,31.53,40.78,31.53c2.9,0,5.33-0.17,8.19-0.46c16.37,24.5,48.07,37.44,91.75,37.44c17.49,0,33.48-2.59,48.87-7.91
		c4.6-1.58,16.37-6.01,26.33-13.11c6.8-4.85,12.08-9.75,13.78-15.25C256.57,175.89,256.6,165.58,254.16,161.54z M221.79,193.06
		L221.79,193.06c-9.13,3.28-23.93,7.19-42.66,7.19c-34.16,0-60.47-8.47-76.51-24.55c17.42-2.24,34.56-4.68,51.92-8.49
		c13.88-3.07,24.82-5.25,39.27-5.25c14.73,0,24.85,1.92,32.84,6.23c5.86,3.11,8.7,7.08,8.7,12.16
		C235.36,187.12,232.14,189.36,221.79,193.06z"/>
</g>
<g>
	<g>
		<path class="st0" d="M231.25,32.27c-6.66,0-13.34-0.72-19.99-1.15c-10.82-0.71-21.65-1.23-32.49-1.35
			c-13.28-0.15-26.57,0.27-39.79,1.55c-14.7,1.42-29.37,3.76-43.6,7.76c-14.03,3.94-27.84,9.49-40.22,17.24
			C42.3,64.38,31.12,74.79,22.55,87.35c-9.19,13.47-14.86,29.29-17.35,45.34c-2.57,16.53-3.4,34.21,1.52,50.41
			c3.91,12.87,11.19,24.53,20.79,33.93c9.64,9.46,21.35,16.74,33.72,22.05c13.55,5.81,27.72,9.73,42.29,11.95
			c15.32,2.34,30.81,3.18,46.29,2.41c15.29-0.76,30.61-2.93,45.45-6.7c13.76-3.5,27.3-8.47,39.78-15.28
			c10.95-5.98,21.42-13.64,29.4-23.31c7.7-9.33,13.39-20.31,15.05-32.39c1.31-9.54,0.64-19.12-0.81-28.62
			c-1.54-10.11-4.62-19.86-8.91-29.13c-8.13-17.56-21.4-32.21-37.1-43.35c-15.23-10.81-33.08-18.15-51.3-22.1
			c-18.7-4.05-37.9-4.71-56.81-1.78c-8.09,1.25-16.07,3.26-23.74,6.13c-1.87,0.7-3.44,1.67-4.48,3.45
			c-0.94,1.61-1.34,3.98-0.76,5.78c1.16,3.58,5.29,6.71,9.23,5.24c8.54-3.19,17.45-5.31,26.48-6.53c-0.66,0.09-1.33,0.18-1.99,0.27
			c9.89-1.31,19.92-1.54,29.87-0.78c2.86,0.22,5.72,0.53,8.57,0.91c-0.66-0.09-1.33-0.18-1.99-0.27c9.54,1.3,18.96,3.49,28.07,6.62
			c2.28,0.78,4.53,1.62,6.77,2.52c0.54,0.22,1.07,0.44,1.6,0.66c1.16,0.48-1.88-0.81-0.73-0.31c0.26,0.11,0.53,0.23,0.79,0.34
			c1.14,0.5,2.28,1.01,3.41,1.54c4.33,2.03,8.56,4.29,12.64,6.79c2.03,1.24,4.03,2.55,5.98,3.91c0.94,0.65,1.86,1.32,2.78,2
			c0.46,0.34,0.91,0.68,1.37,1.03c0.99,0.75-1.59-1.24-0.62-0.48c0.3,0.23,0.6,0.47,0.9,0.71c3.71,2.96,7.24,6.15,10.54,9.57
			c1.65,1.71,3.24,3.48,4.77,5.3c0.74,0.88,1.45,1.77,2.16,2.67c0.77,0.98-1.22-1.6-0.47-0.61c0.17,0.23,0.35,0.46,0.52,0.69
			c0.4,0.54,0.8,1.08,1.19,1.62c2.83,3.92,5.36,8.05,7.58,12.35c0.63,1.22,1.23,2.46,1.81,3.7c0.29,0.63,0.58,1.26,0.85,1.89
			c0.12,0.27,0.23,0.55,0.35,0.82c-1.1-2.5-0.41-0.99-0.18-0.42c1.07,2.61,2.02,5.27,2.86,7.96c1.75,5.62,3,11.39,3.79,17.22
			c-0.09-0.66-0.18-1.33-0.27-1.99c0.99,7.46,1.52,15.21,0.53,22.7c0.09-0.66,0.18-1.33,0.27-1.99c-0.5,3.71-1.37,7.35-2.62,10.88
			c-0.31,0.89-0.66,1.76-1.01,2.63c-0.41,1.03,0.85-1.97,0.46-1.08c-0.09,0.21-0.18,0.42-0.27,0.63c-0.2,0.44-0.4,0.88-0.61,1.32
			c-0.8,1.68-1.68,3.32-2.64,4.92c-0.97,1.62-2.01,3.19-3.12,4.71c-0.28,0.38-0.56,0.75-0.84,1.13c-0.71,0.95,1.25-1.6,0.69-0.89
			c-0.18,0.23-0.36,0.46-0.55,0.69c-0.59,0.74-1.2,1.47-1.82,2.19c-2.6,2.99-5.45,5.77-8.46,8.35c-0.76,0.65-1.54,1.29-2.33,1.92
			c-0.2,0.16-0.4,0.32-0.6,0.47c-0.1,0.08-0.2,0.16-0.3,0.23c-0.73,0.58,1.26-0.97,1.07-0.82c-0.44,0.32-0.86,0.66-1.3,0.98
			c-1.69,1.26-3.43,2.47-5.19,3.62c-3.67,2.4-7.47,4.58-11.37,6.57c-2.02,1.03-4.06,2.01-6.13,2.94c-1.07,0.48-2.15,0.92-3.22,1.41
			c-0.19,0.09,2.1-0.88,1.2-0.51c-0.1,0.04-0.2,0.08-0.3,0.12c-0.26,0.11-0.53,0.22-0.79,0.33c-0.56,0.23-1.13,0.46-1.7,0.68
			c-4.43,1.76-8.94,3.32-13.5,4.7c-9.53,2.89-19.28,5.03-29.12,6.52c-1.24,0.19-2.48,0.36-3.72,0.53c0.66-0.09,1.33-0.18,1.99-0.27
			c-15.44,2.06-31.09,2.58-46.63,1.47c-4.37-0.31-8.74-0.76-13.08-1.34c0.66,0.09,1.33,0.18,1.99,0.27
			c-9.36-1.26-18.65-3.15-27.71-5.82c-4.32-1.28-8.59-2.73-12.79-4.39c-0.5-0.2-1-0.4-1.5-0.6c-0.27-0.11-0.53-0.22-0.8-0.33
			c-1.29-0.53,1.74,0.74,0.8,0.34c-1.02-0.44-2.03-0.88-3.03-1.33c-1.99-0.9-3.95-1.86-5.89-2.86c-3.78-1.96-7.45-4.13-10.97-6.52
			c-0.86-0.59-1.72-1.18-2.56-1.8c-0.38-0.27-0.76-0.55-1.13-0.83c-0.79-0.59-2.07-1.63,0.01,0.02c-1.58-1.25-3.14-2.53-4.64-3.87
			c-3-2.68-5.82-5.58-8.39-8.68c-0.31-0.37-0.61-0.75-0.91-1.12c-0.14-0.18-0.28-0.35-0.42-0.53c-0.4-0.5,1.38,1.82,0.52,0.68
			c-0.6-0.8-1.19-1.6-1.76-2.41c-1.14-1.63-2.21-3.31-3.21-5.04c-1-1.73-1.93-3.51-2.78-5.32c-0.19-0.41-0.38-0.82-0.57-1.24
			c-0.11-0.24-0.21-0.48-0.31-0.71c-0.57-1.3,0.77,1.88,0.34,0.8c-0.38-0.94-0.76-1.88-1.1-2.84c-1.41-3.89-2.48-7.9-3.2-11.97
			c-0.19-1.06-0.35-2.13-0.5-3.2c0.09,0.66,0.18,1.33,0.27,1.99c-1.4-10.55-0.82-21.51,0.58-32.03c-0.09,0.66-0.18,1.33-0.27,1.99
			c0.84-6.22,2.1-12.38,3.88-18.4c0.82-2.79,1.76-5.54,2.81-8.25c0.24-0.61,0.48-1.22,0.73-1.83c0.06-0.15,0.13-0.3,0.19-0.45
			c0.42-1.04-0.76,1.79-0.42,1c0.14-0.34,0.29-0.67,0.43-1.01c0.56-1.29,1.16-2.56,1.77-3.83c2.37-4.84,5.14-9.48,8.3-13.84
			c0.35-0.49,0.71-0.98,1.08-1.46c0.18-0.24,0.37-0.48,0.55-0.72c-1.73,2.3-0.76,0.99-0.34,0.45c0.79-1,1.6-1.98,2.42-2.94
			c1.69-1.97,3.46-3.87,5.3-5.69c1.8-1.79,3.68-3.5,5.61-5.14c0.98-0.83,1.97-1.64,2.98-2.44c0.12-0.09,0.23-0.18,0.35-0.27
			c0.44-0.34,1.08-0.81-1,0.77c0.23-0.18,0.47-0.36,0.7-0.53c0.53-0.4,1.06-0.79,1.59-1.18c4.1-2.99,8.4-5.69,12.85-8.12
			c2.27-1.24,4.58-2.41,6.92-3.52c1.14-0.54,2.29-1.06,3.44-1.57c0.58-0.25,1.16-0.5,1.74-0.75c-2.55,1.09-0.65,0.27,0.27-0.1
			c4.79-1.95,9.67-3.65,14.61-5.14c9.99-3.01,20.23-5.17,30.54-6.71c1.26-0.19,2.52-0.37,3.78-0.54c-0.66,0.09-1.33,0.18-1.99,0.27
			c8.73-1.17,17.52-1.93,26.32-2.36c8.26-0.4,16.53-0.52,24.79-0.41c7.24,0.09,14.47,0.36,21.7,0.74c5.81,0.31,11.62,0.7,17.43,1.1
			c3.88,0.26,7.77,0.57,11.67,0.65c0.33,0.01,0.66,0.01,0.99,0.01c3.92,0,7.68-3.45,7.5-7.5C238.56,35.7,235.45,32.27,231.25,32.27
			L231.25,32.27z"/>
	</g>
</g>
</svg>
