<?xml version="1.0" encoding="UTF-8"?>
<svg id="Layer_1" xmlns="http://www.w3.org/2000/svg" version="1.1" viewBox="0 0 283.46 283.46">
  <!-- Generator: Adobe Illustrator 29.6.1, SVG Export Plug-In . SVG Version: 2.1.1 Build 9)  -->
  <defs>
    <style>
      .st0 {
        fill: red;
        stroke: #fff;
        stroke-miterlimit: 10;
        stroke-width: 6px;
      }

      .st1 {
        fill: #fff;
      }
    </style>
  </defs>
  <rect class="st1" x="0" y="0" width="283.46" height="283.46"/>
  <path d="M245.15,155.31c-7.37-12.96-25.5-15.5-43.25-15.5-15.48,0-28.09,2.15-38.4,4.24l-30.15,6.17c-11.15,2.24-23.09,4.53-35.8,5.83-3.16-5.72-7.06-14.17-7.06-24,0-8.53,2.83-18.33,24.9-18.33,6.34,0,12.94.93,18.56,1.85,20.07,3.24,39.31,6.78,54.15,14.35,3.54,1.82,5.83,3.95,7.21,6.71,1.36,2.74,4.32,2.9,8.82.47,2.99-1.61,12.56-7.26,10.22-12.2-1.94-4.1-5.43-7.43-10.65-10.19-16.38-8.54-36.61-11.8-56.18-14.96-5.85-.95-13.14-2.14-20.12-2.14-14.62,0-28.45,5.32-42.29,16.28-9.92,7.91-14.55,16.34-14.55,26.54,0,5.55,1.14,10.45,2.57,14.76-6.89-1.99-16.67-7.2-16.67-20.73,0-9.82,5.24-17.62,8.77-20.48,2.72-2.19,5.69-3.82,11.37-6.78,12.21-6.35,44.67-21.12,82.22-21.12,27.21,0,49.53,6.75,66.37,20.08,4.65,3.61,6.97,1.27,7.57.47s2.21-3.72-2.16-7.6c-17.81-15.87-43.06-23.93-75.06-23.93-27.07,0-53.23,6.34-77.76,18.86-19.95,10.16-41.27,28.22-41.27,48.44,0,18.72,14.25,30.35,37.2,30.35,2.65,0,4.86-.16,7.47-.44,14.93,23.58,43.85,36.04,83.69,36.04,15.95,0,30.54-2.49,44.58-7.61,4.2-1.52,14.93-5.78,24.02-12.62,6.2-4.67,11.02-9.38,12.57-14.68,1.31-4.32,1.34-14.24-.88-18.13ZM215.63,185.65h0c-8.33,3.16-21.83,6.92-38.91,6.92-31.16,0-55.16-8.15-69.79-23.63,15.89-2.16,31.52-4.5,47.36-8.17,12.66-2.95,22.64-5.05,35.82-5.05s22.67,1.85,29.96,6c5.35,2.99,7.94,6.81,7.94,11.7,0,6.52-2.93,8.67-12.37,12.23Z"/>
  <path class="st0" d="M78.06,9.72c-4.23-.69-7.95,2.4-8.84,6.63-.88,4.22,2.32,8.46,6.26,9.11.33.05.66.11,1,.15,3.94.56,7.91.87,11.86,1.24,5.92.54,11.83,1.08,17.73,1.71,7.34.79,14.67,1.69,21.97,2.79,8.33,1.24,16.64,2.73,24.88,4.5,8.78,1.9,17.5,4.14,26.09,6.8-.65-.2-1.31-.41-1.96-.61,1.24.39,2.48.78,3.71,1.19,10.11,3.31,20.05,7.26,29.59,12.06,4.72,2.38,9.34,4.96,13.83,7.8.86.54,2.63,1.71.25.15.54.36,1.08.72,1.62,1.07,1.07.72,2.14,1.46,3.19,2.21,2.17,1.55,4.29,3.16,6.36,4.83,4.06,3.28,7.93,6.82,11.54,10.64.47.5.93.99,1.4,1.5.2.22.41.44.61.67-1.82-2-1.26-1.4-.87-.97.11.11.2.23.31.34.88,1.01,1.74,2.02,2.58,3.05,1.66,2.04,3.26,4.14,4.77,6.32,1.54,2.21,3,4.5,4.36,6.84.66,1.14,1.31,2.3,1.93,3.48.33.64,1.08,2.17-.27-.53.14.28.29.56.43.85.29.56.57,1.14.84,1.71,2.43,5.1,4.43,10.42,5.98,15.89.4,1.43.78,2.87,1.13,4.31.08.38.18.75.26,1.13.21.89-.5-2.28-.25-1.12.03.17.08.34.11.5.15.68.28,1.36.42,2.04.59,3.02,1.07,6.06,1.41,9.12.76,6.61.97,13.28.75,19.95.02-.71.05-1.43.07-2.13-.39,11.27-1.69,22.87-4.91,33.72.2-.68.41-1.37.61-2.04-.33,1.1-.68,2.2-1.05,3.28-1.42,4.15-3.19,8.19-5.27,12.04-.51.95-1.05,1.88-1.59,2.8-.62,1.06,1.28-2.05.48-.78-.14.23-.28.46-.43.69-.26.41-.52.81-.79,1.21-1.17,1.76-2.41,3.48-3.71,5.13s-2.67,3.24-4.1,4.76c-.71.76-1.44,1.5-2.18,2.24-1.06,1.06,1.13-1.09.64-.63-.17.17-.34.32-.51.49-.37.34-.73.69-1.11,1.03-3.12,2.83-6.45,5.41-9.93,7.73-1.74,1.16-3.53,2.25-5.33,3.3,2.38-1.39.91-.51.01-.02-.42.23-.85.46-1.28.69-.95.51-1.92.99-2.89,1.47-3.95,1.93-8.02,3.6-12.16,5.04-2.12.73-4.26,1.42-6.42,2.03-1.08.31-2.18.6-3.28.9-1.01.27,2.25-.57.86-.23-.29.07-.57.14-.86.21-.54.13-1.08.26-1.61.38-4.51,1.05-9.06,1.87-13.63,2.51-9.58,1.31-19.25,1.77-28.89,1.55.68.01,1.37.03,2.05.04-4.47-.1-8.94-.35-13.4-.74-15.83-1.39-31.5-4.51-46.69-9.21.65.2,1.31.41,1.96.61-1.22-.38-2.44-.76-3.65-1.17-9.65-3.18-19.1-7.03-28.2-11.63-4.35-2.2-8.63-4.58-12.78-7.15-.54-.32-1.07-.66-1.59-.99-.24-.16-.5-.32-.74-.48-.09-.06-.19-.12-.28-.18-.84-.54,1.3.86,1.12.73-.99-.69-2-1.33-3-2.01-1.92-1.32-3.81-2.68-5.67-4.09-3.58-2.73-7.04-5.64-10.32-8.77-1.57-1.5-3.12-3.05-4.6-4.65-.39-.41-.75-.83-1.14-1.24-.17-.19,1.57,1.77.94,1.04-.09-.09-.18-.19-.26-.29-.18-.19-.35-.39-.52-.59-.69-.79-1.36-1.59-2.02-2.4-2.59-3.2-4.98-6.59-7.09-10.16-.5-.86-.99-1.72-1.46-2.6-.15-.27-.29-.54-.44-.81-.44-.84,1.09,2.16.54,1.05-.22-.44-.44-.88-.65-1.32-.86-1.78-1.63-3.6-2.33-5.46-.69-1.84-1.3-3.7-1.81-5.6-.14-.5-.26-.99-.39-1.49-.05-.24-.11-.47-.16-.71-.24-1,.51,2.36.28,1.21-.2-.97-.41-1.94-.57-2.93-.65-3.91-.91-7.87-.77-11.85-.02.71-.05,1.43-.07,2.13.29-8.02,2.15-16.07,4.42-23.74-.2.68-.41,1.37-.61,2.04,1.79-5.99,4.04-11.84,6.77-17.45,1.31-2.69,2.72-5.32,4.24-7.89.33-.56,1.28-2.03-.25.41.17-.26.33-.54.49-.8.38-.62.78-1.23,1.18-1.84.8-1.21,1.61-2.41,2.46-3.59,2.97-4.15,6.23-8.07,9.75-11.72.49-.5.98-1,1.48-1.5.21-.21.43-.43.64-.64.92-.92-1.52,1.47-.58.56.87-.83,1.74-1.65,2.63-2.45,1.85-1.66,3.76-3.26,5.71-4.78,3.91-3.05,8.01-5.82,12.25-8.31.34-.2.69-.41,1.03-.6,1.11-.64-1.83,1.03-.71.4.52-.29,1.03-.57,1.56-.86,1.04-.56,2.08-1.11,3.14-1.64,2.2-1.11,4.43-2.15,6.69-3.12,4.54-1.95,9.18-3.63,13.89-5.05,1.23-.37,2.46-.72,3.7-1.06.28-.07.57-.15.85-.23,1.24-.34-2.04.52-.79.21.57-.14,1.14-.29,1.72-.43,2.41-.58,4.82-1.09,7.25-1.53,9.71-1.79,19.56-2.54,29.39-2.34-.68-.01-1.37-.03-2.05-.04,2.93.07,5.87.21,8.78.45,10.15.84,20.2,2.73,29.93,5.73-.65-.2-1.31-.41-1.96-.61,8.88,2.76,17.49,6.45,25.54,11.21,3.71,2.19,8.41-.42,10.19-3.98.89-1.79.9-4.35.23-6.19-.74-2.04-2.16-3.32-3.92-4.36-7.23-4.27-14.92-7.69-22.85-10.34-18.53-6.18-37.97-8.65-57.49-7.47-19.02,1.15-38.24,5.92-55.43,14.77-17.71,9.11-33.58,22.31-44.78,39.41-5.91,9.03-10.68,18.75-13.96,29.11-3.09,9.73-5.4,19.68-5.72,29.91-.4,12.95,3.45,25.41,9.6,36.47,6.38,11.46,15.6,21.22,25.6,29.3,11.4,9.2,24.17,16.64,37.43,22.58,14.29,6.4,29.34,11.19,44.6,14.5,15.45,3.35,31.19,5.02,47.01,5.08,15.05.06,29.98-1.72,44.62-5.59,13.36-3.54,26.4-9.26,37.72-17.6,11.27-8.29,20.6-19.33,26.74-32.2,7.73-16.2,9.92-34.89,10.17-52.66.24-17.26-2.75-34.79-9.69-50.44-6.47-14.59-15.94-27.36-27.51-37.93-11.13-10.17-24.08-18.27-37.53-24.71-13.64-6.54-28.01-11.4-42.56-15.31-13.09-3.52-26.39-6.14-39.79-8.17-10.93-1.66-21.92-2.89-32.94-3.92-6.77-.64-13.62-.98-20.32-2.08h0Z"/>
</svg>