<?xml version="1.0" encoding="UTF-8"?>
<svg xmlns="http://www.w3.org/2000/svg" viewBox="0 0 561.46 202.14">
  <defs>
    <style>


      .cls-3 {
        fill: red;
      }
    </style>
  </defs>
  <g>
        <path d="M459.65,81.74c3.65,0,5.72-2.45,6.64-3.55.75-.83,1.61-1.77,2.49-2.45,1.54-1.12,2.33-2.67,2.33-4.61,0-3.51-3-6.59-6.42-6.59-4.78,0-10.61,5.25-10.61,11.38,0,2.82,1.95,5.82,5.56,5.82Z"/>
        <path d="M516.11,95.41c-.88-.73-2.07-.96-3.53-.7-1.52.27-2.82.47-4.57.47-2.55,0-4.38-.12-8.37-1.76-1.8-.74-3.93-2.87-4.54-3.8.17-2.32,1.67-5.49,3.5-5.49.6,0,1.14.1,1.52.27l.11.05c.53.21,1.34.54,2.56.54,2.53,0,4.36-1.55,4.36-3.68,0-3.76-6.17-5.73-8.3-5.73-5.7,0-9.2,2.85-11.35,4.99-1.42,1.42-4.69,5.68-6.21,10.23-5.28,1.8-10.68,6.45-13.49,12.14-2.73.93-5.13,3.74-7.35,6.59-.15.18-.29.32-.4.43-.11-.24-.23-.64-.23-1.18,0-2.37.24-4.69.48-6.95.23-2.2.47-4.48.47-6.75,0-4.23-2.27-6.76-6.07-6.76-1.46,0-5.69,0-15.77,10.18-3.46-5.19-10.04-8.64-15.97-8.64-4.25,0-7.94,1.37-11.43,4.28-1.83-2.54-5.32-4.79-11.94-4.79-9.74,0-18.4,4.58-26.46,14.01-.06-5.24-.55-8.83-2.38-11.32-1.55-2.17-3.81-4.4-8.81-4.4-2.17,0-4.41,0-7.13,2.25-4.98,4.1-12.48,11.61-19.1,18.23-1.56,1.42-4.91,4.45-6.3,4.97-.88-1.04-1.23-5.43-1.37-7.12l-.08-.97c-.11-1.11-.16-2.26-.21-3.37-.21-4.48-.43-9.11-4.08-12.32-2.25-1.91-4.91-2.96-7.5-2.96-7.28,0-18.28,7.76-25.46,15.04-1.2-.28-2.5-.05-3.68.68-10.48,6.4-20.44,14.34-28.81,22.95-14.38-6.01-20-12.33-20-22.42,0-4.82,1.09-10.06,3.25-15.56,33.85-9.01,48.95-18.17,48.95-29.71,0-3.93-1.78-10.52-13.69-10.52-17.59,0-37.73,14.05-49.03,34.19l-13.4,3.82c-2.24.61-3.69,2.6-3.46,4.71.11,1.07.65,2.01,1.53,2.65,1.07.78,2.52,1.03,4,.71,1.84-.34,4.08-.77,6.46-1.33-1.11,3.13-1.88,6.25-2.32,9.34-5.87-9.19-22-12.67-37.31-12.67-13.36,0-24.24,1.76-33.13,3.47l-26.01,5.05c-9.62,1.83-19.92,3.71-30.88,4.77-2.72-4.67-6.09-11.59-6.09-19.62,0-6.97,2.44-14.98,21.48-14.98,5.47,0,11.17.76,16.02,1.51,17.31,2.65,33.92,5.54,46.71,11.74,3.05,1.48,5.03,3.23,6.22,5.48,1.17,2.24,3.73,2.37,7.61.39,2.58-1.32,10.84-5.93,8.81-9.98-1.68-3.35-4.68-6.07-9.19-8.33-14.13-6.98-31.59-9.65-48.46-12.23-5.05-.78-11.33-1.74-17.36-1.74-12.61,0-24.54,4.35-36.48,13.3-8.57,6.47-12.55,13.36-12.55,21.69,0,4.54.99,8.55,2.22,12.07-5.94-1.63-14.37-5.89-14.37-16.95,0-8.03,4.53-14.41,7.57-16.74,2.34-1.79,4.91-3.13,9.81-5.54,10.54-5.19,38.54-17.26,70.93-17.26,23.47,0,42.73,5.52,57.26,16.41,4.01,2.95,6.01,1.04,6.53.38.52-.65,1.9-3.03-1.86-6.21-15.36-12.98-37.15-19.56-64.75-19.56-23.36,0-45.93,5.19-67.08,15.42-17.21,8.31-35.61,23.07-35.61,39.6,0,15.31,12.3,24.81,32.09,24.81,2.28,0,4.2-.13,6.45-.36,12.88,19.28,37.82,29.46,72.2,29.46,13.77,0,26.35-2.04,38.46-6.22,3.62-1.24,12.88-4.73,20.72-10.32,5.35-3.82,8.97-7.83,10.85-12,2.84,9.37,10.8,16.24,25.45,22.39-9.66,12.73-14.95,24.91-14.95,34.48,0,11.03,7.76,29.52,59.73,29.52,15.71,0,30.63-3.92,42.02-11.05,11.1-6.94,17.46-16.11,17.46-25.15,0-12.8-10.57-17.39-49.62-27.63-13.47-3.56-24.67-6.58-33.8-9.69,4.57-4.9,9.74-9.47,15.42-13.7-.02.29-.04.59-.04.88,0,6.2,5.24,10.52,12.75,10.52,6.86,0,13.32-2.69,18.19-7.56.23-.23.41-.4.55-.52.56.7,1.21,2.44,1.56,3.34.28.75.55,1.45.85,2.08l.02.04c1.16,2.31,3.95,3.99,6.64,3.99,3.37,0,6.85-2.04,11.38-5.86v.38l4.54-4.43s.04-.04.06-.05l.87-.81v-.04c3.23-3.16,10.6-10.45,13.3-13.67.64-.76,1.15-1.12,1.37-1.24.46.13,1.68,1.15,1.68,8.37,0,2.13-.66,3.78-.99,4.06-.41.34-2.37,1.82-3.62,2.65l-.19.14c-1.13.91-1.71,2-1.71,3.25,0,2.61,3.49,6.33,6.76,6.33,1.26,0,2.46-.46,3.53-1.38,1.56-1.38,3.31-2.96,4.57-4.22l.06-.06c.33-.26.95-.6,1.45-.79.51.56,1.4,1.7,2.67,3.68,1,1.5,2.51,2.33,4.24,2.33,2.43,0,10.09-2.75,10.09-7.53,0-.98-.25-1.88-.74-2.71-.79-1.29-1.14-2.57-1.14-2.94,0-1.8.74-3.83,1.94-5.27,3.32-4,6.7-6.03,10.05-6.03,3.65,0,5.31,3.99,5.31,7.71,0,4.02-1.92,9.38-7.34,11.29-1.62.58-4.98,1.78-4.98,5.14,0,2.7,1.56,5.56,4.45,5.94-5.43,12.08-17.27,38.76-25.11,56.98-1.47,3.33.66,4.64,1.1,4.86.19.1.71.33,1.38.33.93,0,2.15-.43,3.21-2.24,11.54-18.86,27.22-48.41,35.69-65.99,3.51,1.14,7.11,1.83,9.65,1.83,10.92,0,21.65-8.46,23.87-18,2.76-.87,4.39-3.57,5.09-4.84.04,1.22.04,2.81.04,4.45,0,1.3-.1,2.49-.21,3.75-.11,1.32-.22,2.68-.22,4.21,0,6.47,2.39,9.75,7.1,9.75s9.26-2.69,13.63-8.25c.02-.02.5-.65,1.19-1.61,2.66,5,7.97,9.17,12.82,9.17,3.26,0,5.6-1.47,8.56-3.33,3.75-2.36,7.41-3.73,10.79-4.86,3.21-1.07,3.41-2.96,3.25-3.99-.13-.81-.8-2.7-4.11-2.7-2.77,0-5.03.33-7.02.62-1.77.26-3.44.5-5.3.5-3.13,0-4.71-1.64-4.71-4.88,0-2.16.64-4.32,1.97-6.58,3.93,3.7,9.09,5.64,15.06,5.64,6.93,0,12.3-2.89,16.17-5.38,1.94-1.21,2.23-2.72,2.23-3.52,0-.94-.41-1.82-1.13-2.42ZM272.08,58.12c3.02,0,4.54,1.21,4.54,1.89,0,.86-1.44,5.42-28.31,14.63,7.18-9.92,16.48-16.51,23.77-16.51ZM195.01,125.72h0c-7.18,2.58-18.83,5.66-33.56,5.66-26.88,0-47.58-6.67-60.2-19.32,13.71-1.77,27.2-3.68,40.85-6.68,10.92-2.42,19.53-4.13,30.9-4.13s19.56,1.51,25.85,4.9c4.61,2.44,6.85,5.57,6.85,9.57,0,5.33-2.54,7.09-10.68,10.01ZM290.03,151.73c30.41,8.08,42.81,14.51,42.81,22.17s-12.9,16.18-34.49,16.18c-23.42,0-48.44-6.72-48.44-25.59,0-6.5,2.63-14.41,7.42-22.38,8.02,2.82,17.91,5.73,32.7,9.62ZM308.62,112.17c-2.17,1.47-4.63,2.35-6.59,2.35-2.06,0-3.34-1.65-3.34-3.17,0-2.97,2.76-6.23,4.6-7.48.37-.25,1.12-.4,1.99-.4,2.63,0,6.17,2.24,6.17,4.54,0,1.12-.22,2.37-2.83,4.16ZM418.41,115.12c-1.9,0-5.06-.93-6.53-1.73,1.5-5.06,5.47-9.92,11.32-9.92,1.64,0,3.51.42,3.51,3.68,0,5.88-4.47,7.96-8.3,7.96Z"/>
        <path class="cls-3" d="M453.79,1.99c-37.28-.02-74.55-1.91-111.84-1.99-57.48-.12-115.23,1.53-172.32,8.65-26.94,3.36-53.88,7.79-80.03,15.19-20.73,5.87-42,13.54-59.6,26.27C15.78,60.41,3.63,74.45.72,92.28c-2.35,14.38.98,27.07,11.56,37.33,11.26,10.93,26.4,17.49,40.97,22.66,19.6,6.96,40.11,11.31,60.6,14.72,52.79,8.78,106.65,11.41,160.1,11.2s108.72-3.49,162.38-11.7c21.36-3.27,42.71-7.35,63.46-13.43,15.02-4.4,30.72-9.71,43.72-18.67,9.81-6.76,18.35-16.12,17.93-28.76-.84-25.6-21.39-43.36-42.75-54.03-30.75-15.36-65.68-21.61-99.53-25.56-40.81-4.76-82.17-5.17-123.15-2.61-19.98,1.25-39.9,3.33-59.71,6.19-4,.58-6.23,5.67-5.24,9.23,1.21,4.3,5.18,5.82,9.23,5.24,39.6-5.72,79.81-7.87,119.8-6.99,37.09.82,74.55,4.05,110.6,13.19,14.15,3.59,28.24,8.06,41.29,14.69,10.08,5.12,20.41,12.08,26.47,19.92,1.48,1.92,2.81,3.98,3.97,6.12,1.54,2.84,1.59,2.92,2.54,6.04,1.49,4.88,1,6.31,1.45,11.45.14,1.58.62-1.81.04-.32-.17.43-.17.94-.32,1.38s-.32.91-.43,1.36c-.45,1.9.75-1.24-.04.09-.52.87-.97,1.78-1.51,2.64-.28.45-.61.86-.92,1.3,1.02-1.47.62-.72-.18.15-1.73,1.9-3.57,3.59-5.56,5.22.79-.65.77-.54-.39.27-.57.39-1.13.8-1.7,1.19-1.27.86-2.56,1.67-3.88,2.44-2.91,1.72-5.91,3.26-8.97,4.69-.78.37-1.57.72-2.36,1.08-.44.2-3.07,1.31-1.16.52-1.89.79-3.8,1.55-5.72,2.27-17.88,6.76-36.63,11.18-55.36,14.82-48.98,9.52-99.11,13.43-149.51,14.99-53.24,1.64-106.8.38-159.74-5.74-21.36-2.47-43.63-5.96-65.29-11.31-9.04-2.23-18.01-4.8-26.78-7.94-1.91-.68-3.81-1.4-5.7-2.14-.91-.36-1.83-.73-2.73-1.1-1.83-.75,1.46.64-.34-.14-.52-.23-1.04-.45-1.56-.68-3.44-1.53-6.82-3.18-10.1-5.02-2.96-1.65-5.77-3.49-8.54-5.42-.25-.17-.48-.36-.73-.54-1.31-.96,1.35,1.1.11.09-.56-.46-1.13-.91-1.68-1.38-1.16-.99-2.28-2.02-3.35-3.11-.92-.94-1.77-1.93-2.62-2.93-.38-.44.91,1.42-.2-.28-.4-.62-.84-1.21-1.22-1.84-.63-1.02-1.14-2.08-1.7-3.14-.85-1.61.51,1.64-.05-.14-.19-.6-.42-1.19-.6-1.8-.32-1.1-.52-2.21-.74-3.34.19.93.07,1.5.04-.06-.01-.86-.07-1.72-.07-2.59,0-1.97.13-3.92.34-5.87.13-1.17-.32,1.88,0,.09.08-.45.14-.9.23-1.34.2-.97.39-1.94.64-2.91.44-1.74,1.01-3.43,1.61-5.12.7-1.95-.38.64.48-1.18.46-.97.93-1.94,1.44-2.89.86-1.6,1.81-3.15,2.83-4.66.52-.76,1.06-1.51,1.61-2.25-1.17,1.57.96-1.16,1.29-1.55,11.45-13.36,28.71-22.18,44.96-28.39,22.63-8.65,46.49-13.97,70.33-18.04,54.99-9.39,111.3-11.94,167.08-12.73,43.37-.61,86.7.45,130.05,1.51,5.35.13,10.7.27,16.06.27,9.65,0,9.67-14.99,0-15h0Z"/>
  </g>
</svg>